
<svg xmlns="http://www.w3.org/2000/svg" width="32" height="32" viewBox="0 0 32 32">
  <rect width="32" height="32" rx="4" fill="#009F8C"/>
  <path d="M16.6,21.6v-1.2c2.2-0.1,3.6-1.4,3.6-3.3c0-1.7-1.2-2.7-3.5-3.2l-0.5-0.1v-3.4c0.9,0.1,1.5,0.7,1.6,1.5h1.8c-0.1-1.9-1.6-3.1-3.4-3.2V7.5h-1.4v1.2c-2,0.2-3.4,1.5-3.4,3.2c0,1.6,1.1,2.7,3.2,3.1l0.5,0.1V19c-1-0.1-1.7-0.8-1.8-1.8h-1.8c0.1,2,1.6,3.2,3.6,3.4v1.1h1.4zM15.2,13.4c-1.1-0.3-1.6-0.8-1.6-1.6c0-0.8,0.6-1.4,1.6-1.5V13.4zM16.6,17v-3.2l0.3,0.1c1.2,0.3,1.8,0.8,1.8,1.6C18.7,16.2,18,16.9,16.6,17z" fill="white"/>
</svg>
